M48
;DRILL file {KiCad 4.0.7-e2-6376~58~ubuntu16.04.1} date Mon Apr  2 14:55:03 2018
;FORMAT={-:-/ absolute / inch / decimal}
FMAT,2
INCH,TZ
T1C0.040
T2C0.110
%
G90
G05
M72
T1
X2.06Y-2.07
X2.06Y-2.17
X2.06Y-2.27
X2.06Y-2.37
X2.06Y-2.47
X2.06Y-2.57
X2.06Y-2.67
X2.06Y-2.77
X2.06Y-2.87
X2.06Y-2.97
X2.06Y-3.07
X2.06Y-3.17
X2.06Y-3.27
X2.06Y-3.37
X2.06Y-3.47
X2.06Y-3.57
X2.06Y-3.67
X2.06Y-3.77
X2.06Y-3.87
X2.06Y-3.97
X2.16Y-2.07
X2.16Y-2.17
X2.16Y-2.27
X2.16Y-2.37
X2.16Y-2.47
X2.16Y-2.57
X2.16Y-2.67
X2.16Y-2.77
X2.16Y-2.87
X2.16Y-2.97
X2.16Y-3.07
X2.16Y-3.17
X2.16Y-3.27
X2.16Y-3.37
X2.16Y-3.47
X2.16Y-3.57
X2.16Y-3.67
X2.16Y-3.77
X2.16Y-3.87
X2.16Y-3.97
X2.36Y-2.15
X2.36Y-2.25
X2.36Y-2.35
X2.36Y-2.45
X2.36Y-2.55
X2.36Y-2.65
X2.36Y-2.75
X2.36Y-2.85
T2
X2.86Y-2.15
X2.86Y-2.85
T0
M30
