G04 #@! TF.FileFunction,Copper,L2,Bot,Signal*
%FSLAX46Y46*%
G04 Gerber Fmt 4.6, Leading zero omitted, Abs format (unit mm)*
G04 Created by KiCad (PCBNEW 4.0.7-e2-6376~58~ubuntu16.04.1) date Mon Apr  2 14:55:01 2018*
%MOMM*%
%LPD*%
G01*
G04 APERTURE LIST*
%ADD10C,0.100000*%
%ADD11C,1.905000*%
%ADD12C,3.556000*%
%ADD13R,1.905000X1.905000*%
%ADD14C,0.203200*%
G04 APERTURE END LIST*
D10*
D11*
X59944000Y-72390000D03*
X59944000Y-69850000D03*
X59944000Y-67310000D03*
X59944000Y-64770000D03*
X59944000Y-62230000D03*
X59944000Y-59690000D03*
X59944000Y-57150000D03*
X59944000Y-54610000D03*
D12*
X72644000Y-72390000D03*
X72644000Y-54610000D03*
D13*
X52324000Y-52578000D03*
D11*
X54864000Y-52578000D03*
X52324000Y-55118000D03*
X54864000Y-55118000D03*
X52324000Y-57658000D03*
X54864000Y-57658000D03*
X52324000Y-60198000D03*
X54864000Y-60198000D03*
X52324000Y-62738000D03*
X54864000Y-62738000D03*
X52324000Y-65278000D03*
X54864000Y-65278000D03*
X52324000Y-67818000D03*
X54864000Y-67818000D03*
X52324000Y-70358000D03*
X54864000Y-70358000D03*
X52324000Y-72898000D03*
X54864000Y-72898000D03*
X52324000Y-75438000D03*
X54864000Y-75438000D03*
X52324000Y-77978000D03*
X54864000Y-77978000D03*
X52324000Y-80518000D03*
X54864000Y-80518000D03*
X52324000Y-83058000D03*
X54864000Y-83058000D03*
X52324000Y-85598000D03*
X54864000Y-85598000D03*
X52324000Y-88138000D03*
X54864000Y-88138000D03*
X52324000Y-90678000D03*
X54864000Y-90678000D03*
X52324000Y-93218000D03*
X54864000Y-93218000D03*
X52324000Y-95758000D03*
X54864000Y-95758000D03*
X52324000Y-98298000D03*
X54864000Y-98298000D03*
X52324000Y-100838000D03*
X54864000Y-100838000D03*
D14*
X58661700Y-68567700D02*
X59944000Y-69850000D01*
X58661700Y-67279900D02*
X58661700Y-68567700D01*
X55389800Y-64008000D02*
X58661700Y-67279900D01*
X53594000Y-64008000D02*
X55389800Y-64008000D01*
X52324000Y-62738000D02*
X53594000Y-64008000D01*
X53594000Y-58928000D02*
X52324000Y-57658000D01*
X55398600Y-58928000D02*
X53594000Y-58928000D01*
X56577600Y-60107000D02*
X55398600Y-58928000D01*
X56577600Y-63943600D02*
X56577600Y-60107000D01*
X59944000Y-67310000D02*
X56577600Y-63943600D01*
X58661700Y-63487700D02*
X59944000Y-64770000D01*
X58661700Y-59669200D02*
X58661700Y-63487700D01*
X55380500Y-56388000D02*
X58661700Y-59669200D01*
X53594000Y-56388000D02*
X55380500Y-56388000D01*
X52324000Y-55118000D02*
X53594000Y-56388000D01*
M02*
